<svg xmlns="http://www.w3.org/2000/svg" width="64" height="64" viewBox="0 0 64 64"><path fill="#096AD8" d="M39.066 27.729c-5.45 0-9.666 4.434-9.666 9.668 0 5.449 4.216 9.597 10.105 9.597 4.94 0 9.084-4.073 9.084-9.452.001-5.599-4.143-9.813-9.523-9.813z"/><path fill="#0D56BF" d="M46.168 43.811c3.493-3.493 3.543-9.304-.261-13.107-3.958-3.958-9.868-4.008-13.672-.203"/><path fill="#2A98F2" d="M49 52.806c-4 3.345-7.148 4.579-11.797 4.579-4.729 0-8.918-1.527-12.334-4.579-4.508-3.998-6.895-9.231-6.895-15.338 0-5.595 2.151-10.614 6.224-14.538 3.631-3.562 7.972-5.38 12.918-5.38 4.724 0 8.883 1.6 10.883 4.944V6.528C43 3.56 37.868 1.834 31.923 1.834 15.261 1.834 1.795 15.338 1.795 32c0 16.661 13.523 30.083 30.185 30.083 6.146 0 11.881-2.083 16.648-5.083H49v-4.194z"/><path fill="#1580EA" d="M1.834 32c0 16.661 13.504 30.083 30.166 30.083 6.146 0 11.861-2.083 16.629-5.083H49v-4.194c-4 3.345-7.148 4.579-11.797 4.579-4.729 0-8.918-1.527-12.334-4.579-4.508-3.998-6.895-9.231-6.895-15.338 0-5.595 2.151-10.614 6.224-14.538 3.631-3.562 7.972-5.38 12.918-5.38 4.724 0 8.883 1.6 10.883 4.944V6.528C43 3.56 37.868 1.834 31.923 1.834"/><path fill="#096AD8" d="M1.757 32.236c0 16.661 13.542 29.965 30.205 29.965 6.146 0 11.9-2.201 16.667-5.201H49v-4.194c-4 3.345-7.148 4.579-11.797 4.579-4.729 0-8.918-1.527-12.334-4.579-4.508-3.998-6.895-9.231-6.895-15.338 0-5.595 2.151-10.614 6.224-14.538 3.631-3.562 7.972-5.38 12.918-5.38 4.724 0 8.883 1.6 10.883 4.944V7"/><path fill="#0D56BF" d="M60 44.092c1.623-3.703 2.166-7.791 2.166-12.092S61.623 23.611 60 19.908M60 19.908V3.105L48 5.482v1.046c5 3.204 9 7.859 12 13.38zM60 44.092C57 49.439 53.819 54 49 57h11V44.092z"/></svg>